<svg width="24" height="25" viewBox="0 0 24 25" fill="none" xmlns="http://www.w3.org/2000/svg">
<path d="M12.001 9.05444C11.2054 9.05444 10.4423 9.37051 9.87968 9.93312C9.31707 10.4957 9.001 11.2588 9.001 12.0544C9.001 12.8501 9.31707 13.6132 9.87968 14.1758C10.4423 14.7384 11.2054 15.0544 12.001 15.0544C12.7966 15.0544 13.5597 14.7384 14.1223 14.1758C14.6849 13.6132 15.001 12.8501 15.001 12.0544C15.001 11.2588 14.6849 10.4957 14.1223 9.93312C13.5597 9.37051 12.7966 9.05444 12.001 9.05444ZM12.001 7.05444C13.3271 7.05444 14.5989 7.58123 15.5365 8.51891C16.4742 9.45659 17.001 10.7284 17.001 12.0544C17.001 13.3805 16.4742 14.6523 15.5365 15.59C14.5989 16.5277 13.3271 17.0544 12.001 17.0544C10.6749 17.0544 9.40315 16.5277 8.46547 15.59C7.52778 14.6523 7.001 13.3805 7.001 12.0544C7.001 10.7284 7.52778 9.45659 8.46547 8.51891C9.40315 7.58123 10.6749 7.05444 12.001 7.05444ZM18.501 6.80444C18.501 7.13596 18.3693 7.45391 18.1349 7.68833C17.9005 7.92275 17.5825 8.05444 17.251 8.05444C16.9195 8.05444 16.6015 7.92275 16.3671 7.68833C16.1327 7.45391 16.001 7.13596 16.001 6.80444C16.001 6.47292 16.1327 6.15498 16.3671 5.92056C16.6015 5.68614 16.9195 5.55444 17.251 5.55444C17.5825 5.55444 17.9005 5.68614 18.1349 5.92056C18.3693 6.15498 18.501 6.47292 18.501 6.80444ZM12.001 4.05444C9.527 4.05444 9.123 4.06144 7.972 4.11244C7.188 4.14944 6.662 4.25444 6.174 4.44444C5.76583 4.59481 5.39672 4.83508 5.094 5.14744C4.78127 5.45006 4.54066 5.81918 4.39 6.22744C4.2 6.71744 4.095 7.24244 4.059 8.02544C4.007 9.12944 4 9.51544 4 12.0544C4 14.5294 4.007 14.9324 4.058 16.0834C4.095 16.8664 4.2 17.3934 4.389 17.8804C4.559 18.3154 4.759 18.6284 5.091 18.9604C5.428 19.2964 5.741 19.4974 6.171 19.6634C6.665 19.8544 7.191 19.9604 7.971 19.9964C9.075 20.0484 9.461 20.0544 12 20.0544C14.475 20.0544 14.878 20.0474 16.029 19.9964C16.811 19.9594 17.337 19.8544 17.826 19.6654C18.2342 19.5151 18.6033 19.2748 18.906 18.9624C19.243 18.6264 19.444 18.3134 19.61 17.8824C19.8 17.3904 19.906 16.8644 19.942 16.0824C19.994 14.9794 20 14.5924 20 12.0544C20 9.58044 19.993 9.17644 19.942 8.02544C19.905 7.24344 19.799 6.71544 19.61 6.22744C19.4596 5.81928 19.2194 5.45016 18.907 5.14744C18.6044 4.83472 18.2353 4.59411 17.827 4.44344C17.337 4.25344 16.811 4.14844 16.029 4.11244C14.926 4.06044 14.54 4.05444 12 4.05444M12 2.05444C14.717 2.05444 15.056 2.06444 16.123 2.11444C17.187 2.16444 17.913 2.33144 18.55 2.57944C19.21 2.83344 19.766 3.17744 20.322 3.73244C20.8307 4.23218 21.2242 4.83692 21.475 5.50444C21.722 6.14144 21.89 6.86744 21.94 7.93244C21.987 8.99844 22 9.33744 22 12.0544C22 14.7714 21.99 15.1104 21.94 16.1764C21.89 17.2424 21.722 17.9664 21.475 18.6044C21.2242 19.272 20.8307 19.8767 20.322 20.3764C19.8223 20.8851 19.2175 21.2786 18.55 21.5294C17.913 21.7764 17.187 21.9444 16.123 21.9944C15.056 22.0414 14.717 22.0544 12 22.0544C9.283 22.0544 8.944 22.0444 7.877 21.9944C6.813 21.9444 6.088 21.7764 5.45 21.5294C4.78247 21.2786 4.17773 20.8851 3.678 20.3764C3.16931 19.8767 2.77582 19.272 2.525 18.6044C2.277 17.9674 2.11 17.2414 2.06 16.1764C2.012 15.1104 2 14.7714 2 12.0544C2 9.33744 2.01 8.99844 2.06 7.93244C2.11 6.86644 2.277 6.14244 2.525 5.50444C2.77582 4.83692 3.16931 4.23218 3.678 3.73244C4.17773 3.22375 4.78247 2.83026 5.45 2.57944C6.087 2.33144 6.812 2.16444 7.877 2.11444C8.945 2.06744 9.284 2.05444 12.001 2.05444" fill="#FAF9F4"/>
</svg>
