<svg width="24" height="25" viewBox="0 0 24 25" fill="none" xmlns="http://www.w3.org/2000/svg">
<path d="M19 3.05444C19.5304 3.05444 20.0391 3.26516 20.4142 3.64023C20.7893 4.0153 21 4.52401 21 5.05444V19.0544C21 19.5849 20.7893 20.0936 20.4142 20.4687C20.0391 20.8437 19.5304 21.0544 19 21.0544H5C4.46957 21.0544 3.96086 20.8437 3.58579 20.4687C3.21071 20.0936 3 19.5849 3 19.0544V5.05444C3 4.52401 3.21071 4.0153 3.58579 3.64023C3.96086 3.26516 4.46957 3.05444 5 3.05444H19ZM18.5 18.5544V13.2544C18.5 12.3898 18.1565 11.5606 17.5452 10.9493C16.9338 10.3379 16.1046 9.99444 15.24 9.99444C14.39 9.99444 13.4 10.5144 12.92 11.2944V10.1844H10.13V18.5544H12.92V13.6244C12.92 12.8544 13.54 12.2244 14.31 12.2244C14.6813 12.2244 15.0374 12.3719 15.2999 12.6345C15.5625 12.897 15.71 13.2531 15.71 13.6244V18.5544H18.5ZM6.88 8.61444C7.32556 8.61444 7.75288 8.43744 8.06794 8.12238C8.383 7.80732 8.56 7.38001 8.56 6.93444C8.56 6.00444 7.81 5.24444 6.88 5.24444C6.43178 5.24444 6.00193 5.4225 5.68499 5.73943C5.36805 6.05637 5.19 6.48623 5.19 6.93444C5.19 7.86444 5.95 8.61444 6.88 8.61444ZM8.27 18.5544V10.1844H5.5V18.5544H8.27Z" fill="#FAF9F4"/>
</svg>
