<svg width="239" height="239" viewBox="0 0 239 239" fill="none" xmlns="http://www.w3.org/2000/svg">
<rect width="238.708" height="238.708" transform="translate(0.291992) rotate(0.0570304)" fill="#FDF4E5"/>
<path fill-rule="evenodd" clip-rule="evenodd" d="M143.611 70.3942C143.478 70.8629 143.027 72.8546 142.611 74.8205C141.733 78.9656 140.673 80.977 138.236 83.1209C136.198 84.9129 133.943 85.8146 129.093 86.7755C127.169 87.1569 125.594 87.6 125.594 87.7605C125.593 88.6498 127.442 89.5606 130.434 90.1434C132.242 90.4959 134.613 91.2129 135.703 91.737C139.481 93.5552 142.061 98.0161 143.373 105.002C143.748 107 143.909 107.297 144.531 107.135C145.494 106.883 145.529 106.805 146.231 103.38C147.756 95.9388 150.883 91.8881 155.965 90.7736C161.997 89.451 162.994 89.1502 163.209 88.5899C163.335 88.2613 163.293 87.8465 163.115 87.6676C162.936 87.4887 160.677 86.8206 158.093 86.1833C155.509 85.5456 152.858 84.6912 152.203 84.2849C149.135 82.3822 147.311 79.101 146.434 73.9002C145.961 71.1017 145.223 69.5437 144.369 69.5428C144.085 69.5426 143.745 69.9255 143.611 70.3942ZM124.643 93.7897C113.47 94.9628 101.218 95.6728 88.4277 95.8881C81.6154 96.0029 76.0412 96.2375 76.0411 96.4086C76.0408 96.6908 78.6537 100.903 86.8864 113.891C88.4387 116.34 89.7427 118.344 89.7839 118.344C89.8251 118.344 91.8942 117.674 94.3813 116.854C96.8684 116.034 98.6479 115.526 98.3357 115.724C90.7109 120.56 86.9422 122.357 83.6553 122.724C82.6772 122.832 81.3049 123.008 80.6055 123.114L79.3341 123.307L79.6024 133.035C79.7503 138.385 79.9767 143.465 80.1059 144.324L80.3411 145.886L92.4471 142.389C99.1053 140.466 104.129 139.172 103.61 139.513C101.424 140.952 99.7558 142.823 98.6416 145.084C97.662 147.071 97.4193 148.09 97.2565 150.899C96.6712 161.001 100.707 166.189 110.896 168.432C113.739 169.058 116.278 169.23 125.146 169.4C136.09 169.609 140.56 169.359 147.101 168.172L150.345 167.584L151.001 163.162C151.837 157.53 153.33 150.755 154.459 147.476C155.034 145.807 155.189 144.92 154.905 144.92C154.665 144.92 151.406 145.287 147.661 145.735C138.32 146.855 122.983 146.954 121.073 145.908C119.516 145.055 119.302 144.509 119.859 142.822C120.825 139.902 124.265 138.277 132.064 137.059C135.432 136.532 138.68 136.395 147.576 136.402L158.827 136.411L158.837 127.033L158.846 117.655L157.806 117.657C157.234 117.658 153.192 118.071 148.823 118.576C139.474 119.654 126.672 120.763 125.607 120.586C124.629 120.424 131.127 116.713 134.584 115.46C135.963 114.96 137.14 114.503 137.199 114.445C137.304 114.34 135.237 96.6781 134.835 94.2452C134.637 93.0501 134.579 93.0156 132.852 93.0642C131.873 93.092 128.179 93.4186 124.643 93.7897Z" fill="#034267"/>
</svg>
