<svg width="47" height="54" viewBox="0 0 47 54" fill="none" xmlns="http://www.w3.org/2000/svg">
<path fill-rule="evenodd" clip-rule="evenodd" d="M36.392 0.460442C36.3203 0.713788 36.0788 1.7902 35.8555 2.8527C35.3846 5.0929 34.8144 6.18037 33.5026 7.34007C32.4059 8.30945 31.191 8.79793 28.5789 9.31976C27.5421 9.52686 26.694 9.76711 26.694 9.85388C26.694 10.3344 27.6908 10.8255 29.3029 11.1388C30.2775 11.3283 31.5553 11.7145 32.1426 11.9971C34.1793 12.9775 35.5715 15.3866 36.2822 19.1603C36.4856 20.2402 36.5724 20.4003 36.9074 20.3123C37.426 20.176 37.4451 20.1336 37.8213 18.2826C38.6388 14.261 40.3218 12.0705 43.0592 11.4656C46.3083 10.7477 46.8453 10.5847 46.961 10.2818C47.0289 10.1042 47.0059 9.88007 46.9097 9.78348C46.8135 9.68689 45.5956 9.32713 44.203 8.98415C42.8104 8.64097 41.382 8.18073 41.0286 7.96156C39.3744 6.93508 38.3904 5.16309 37.9146 2.35337C37.6585 0.841484 37.2599 0 36.7998 0C36.6472 0 36.4638 0.207097 36.392 0.460442ZM26.1846 13.1122C20.1656 13.7521 13.5644 14.1423 6.67349 14.2655C3.00317 14.3312 0 14.461 0 14.5535C0 14.7059 1.41009 16.9805 5.85271 23.9942C6.69041 25.3168 7.39403 26.3987 7.41624 26.3987C7.43845 26.3987 8.55287 26.0353 9.89246 25.5912C11.2321 25.1469 12.1906 24.8713 12.0225 24.9785C7.9169 27.5956 5.88735 28.5687 4.11658 28.7684C3.58963 28.8278 2.85035 28.9236 2.47357 28.9813L1.7887 29.086L1.93847 34.342C2.021 37.2328 2.14571 39.9779 2.2158 40.4418L2.34336 41.2857L8.86403 39.3897C12.4504 38.3469 15.1563 37.645 14.8771 37.8297C13.6999 38.6086 12.8021 39.6201 12.203 40.8425C11.6763 41.9168 11.5461 42.4673 11.4599 43.9853C11.1499 49.4444 13.3274 52.2457 18.818 53.452C20.3504 53.7887 21.7185 53.8804 26.4961 53.9671C32.393 54.0744 34.8014 53.9368 38.3246 53.2922L40.0721 52.9726L40.4234 50.5828C40.8707 47.5389 41.6717 43.8777 42.2784 42.1049C42.5871 41.203 42.6698 40.7236 42.5168 40.7238C42.3878 40.7238 40.6319 40.9239 38.6146 41.1683C33.582 41.7783 25.3187 41.8401 24.2893 41.2757C23.4502 40.8157 23.3342 40.5208 23.6337 39.6089C24.1525 38.0305 26.005 37.151 30.2066 36.4883C32.021 36.202 33.7705 36.1259 38.5636 36.1251L44.6258 36.1239V31.0565V25.9894L44.0654 25.9911C43.7573 25.9919 41.5794 26.2172 39.2259 26.492C34.1895 27.0799 27.2922 27.6859 26.7186 27.5909C26.1913 27.5036 29.6906 25.495 31.5527 24.8162C32.2954 24.5455 32.9292 24.2979 32.961 24.2661C33.0174 24.2094 31.894 14.6672 31.6762 13.3528C31.5692 12.7072 31.5378 12.6886 30.6074 12.7158C30.08 12.7313 28.0898 12.9098 26.1846 13.1122Z" fill="#FAF9F4"/>
</svg>
