<svg width="103" height="118" viewBox="0 0 103 118" fill="none" xmlns="http://www.w3.org/2000/svg">
<path fill-rule="evenodd" clip-rule="evenodd" d="M79.7528 1.00615C79.5956 1.55976 79.0664 3.91192 78.577 6.23367C77.545 11.1289 76.2955 13.5052 73.4205 16.0394C71.0171 18.1577 68.3547 19.2251 62.6303 20.3654C60.3582 20.818 58.4996 21.3429 58.4996 21.5325C58.4996 22.5825 60.6841 23.6557 64.2169 24.3404C66.3528 24.7545 69.1532 25.5983 70.4402 26.2158C74.9036 28.3583 77.9545 33.6225 79.5121 41.8689C79.9577 44.2286 80.148 44.5783 80.8821 44.3861C82.0186 44.0882 82.0606 43.9957 82.885 39.9509C84.6766 31.163 88.3647 26.3764 94.3638 25.0545C101.484 23.4858 102.661 23.1294 102.915 22.4676C103.063 22.0794 103.013 21.5898 102.802 21.3787C102.591 21.1676 99.9222 20.3815 96.8704 19.632C93.8186 18.8821 90.6882 17.8764 89.9138 17.3975C86.2887 15.1544 84.1322 11.2823 83.0895 5.14255C82.5282 1.8388 81.6547 0 80.6463 0C80.3119 0 79.91 0.452545 79.7528 1.00615ZM57.3832 28.6525C44.1926 30.0509 29.7263 30.9036 14.6249 31.1728C6.58143 31.3164 0 31.5999 0 31.802C0 32.1351 3.09021 37.1055 12.8261 52.4317C14.662 55.3218 16.2039 57.686 16.2526 57.686C16.3013 57.686 18.7435 56.8919 21.6792 55.9215C24.6149 54.9507 26.7155 54.3483 26.3471 54.5826C17.3498 60.3016 12.9021 62.4279 9.02144 62.8644C7.86663 62.9941 6.2465 63.2033 5.42081 63.3294L3.91992 63.5584L4.24814 75.0437C4.429 81.3606 4.70229 87.359 4.85591 88.3728L5.13546 90.2169L19.4254 86.0738C27.2849 83.795 33.2148 82.2612 32.603 82.665C30.0232 84.367 28.0557 86.5774 26.7428 89.2484C25.5884 91.596 25.3031 92.799 25.1142 96.1161C24.435 108.045 29.2069 114.166 41.2395 116.803C44.5977 117.538 47.5959 117.739 58.066 117.928C70.989 118.162 76.2669 117.862 83.988 116.453L87.8177 115.755L88.5876 110.533C89.5678 103.881 91.3232 95.8809 92.6526 92.007C93.3291 90.0363 93.5104 88.9886 93.1751 88.989C92.8924 88.989 89.0444 89.4263 84.6234 89.9603C73.5947 91.2933 55.4857 91.4284 53.2297 90.195C51.3908 89.1898 51.1367 88.5454 51.7931 86.5528C52.9301 83.1037 56.9897 81.1817 66.1974 79.7337C70.1736 79.1081 74.0078 78.9418 84.5118 78.94L97.797 78.9373V67.8643V56.7917L96.5689 56.7953C95.8937 56.7971 91.1209 57.2894 85.9631 57.89C74.9259 59.1747 59.8107 60.4988 58.5536 60.2913C57.3979 60.1004 65.0667 55.7113 69.1474 54.228C70.7751 53.6364 72.1639 53.0953 72.2336 53.026C72.3573 52.9021 69.8954 32.0506 69.418 29.1784C69.1836 27.7676 69.1148 27.7269 67.0758 27.7863C65.9201 27.8203 61.5585 28.2103 57.3832 28.6525Z" fill="#034267"/>
</svg>
