<svg width="239" height="239" viewBox="0 0 239 239" fill="none" xmlns="http://www.w3.org/2000/svg">
<rect x="1.73581" y="1.50149" width="235.708" height="235.708" transform="rotate(0.0570304 1.73581 1.50149)" fill="#034267"/>
<rect x="1.73581" y="1.50149" width="235.708" height="235.708" transform="rotate(0.0570304 1.73581 1.50149)" stroke="#FDF4E5" stroke-width="3"/>
<path fill-rule="evenodd" clip-rule="evenodd" d="M143.557 70.3942C143.423 70.8629 142.973 72.8546 142.556 74.8205C141.678 78.9656 140.618 80.977 138.181 83.1209C136.144 84.9129 133.888 85.8146 129.039 86.7755C127.114 87.1569 125.54 87.6 125.54 87.7605C125.539 88.6498 127.388 89.5606 130.379 90.1434C132.188 90.4959 134.559 91.2129 135.648 91.737C139.427 93.5552 142.006 98.0161 143.318 105.002C143.694 107 143.855 107.297 144.477 107.135C145.439 106.883 145.475 106.805 146.177 103.38C147.701 95.9388 150.829 91.8881 155.911 90.7736C161.942 89.451 162.939 89.1502 163.155 88.5899C163.281 88.2613 163.239 87.8465 163.06 87.6676C162.882 87.4887 160.622 86.8206 158.038 86.1833C155.454 85.5456 152.804 84.6912 152.148 84.2849C149.08 82.3822 147.257 79.101 146.379 73.9002C145.906 71.1017 145.168 69.5437 144.314 69.5428C144.031 69.5426 143.69 69.9255 143.557 70.3942ZM124.588 93.7897C113.416 94.9628 101.163 95.6728 88.3732 95.8881C81.561 96.0029 75.9868 96.2375 75.9866 96.4086C75.9863 96.6908 78.5993 100.903 86.8319 113.891C88.3843 116.34 89.6882 118.344 89.7294 118.344C89.7707 118.344 91.8397 117.674 94.3268 116.854C96.8139 116.034 98.5935 115.526 98.2813 115.724C90.6565 120.56 86.8878 122.357 83.6009 122.724C82.6227 122.832 81.2504 123.008 80.551 123.114L79.2797 123.307L79.548 133.035C79.6958 138.385 79.9222 143.465 80.0515 144.324L80.2867 145.886L92.3926 142.389C99.0509 140.466 104.074 139.172 103.556 139.513C101.37 140.952 99.7013 142.823 98.5871 145.084C97.6075 147.071 97.3648 148.09 97.2021 150.899C96.6168 161.001 100.653 166.189 110.841 168.432C113.685 169.058 116.224 169.23 125.091 169.4C136.036 169.609 140.506 169.359 147.046 168.172L150.29 167.584L150.947 163.162C151.782 157.53 153.276 150.755 154.405 147.476C154.98 145.807 155.134 144.92 154.85 144.92C154.611 144.92 151.351 145.287 147.607 145.735C138.265 146.855 122.928 146.954 121.019 145.908C119.462 145.055 119.247 144.509 119.805 142.822C120.771 139.902 124.211 138.277 132.01 137.059C135.378 136.532 138.625 136.395 147.521 136.402L158.773 136.411L158.782 127.033L158.792 117.655L157.752 117.657C157.18 117.658 153.137 118.071 148.768 118.576C139.42 119.654 126.617 120.763 125.553 120.586C124.574 120.424 131.073 116.713 134.53 115.46C135.909 114.96 137.086 114.503 137.145 114.445C137.25 114.34 135.182 96.6781 134.78 94.2452C134.583 93.0501 134.525 93.0156 132.798 93.0642C131.819 93.092 128.125 93.4186 124.588 93.7897Z" fill="#FDF4E5"/>
</svg>
