<svg width="252" height="51" viewBox="0 0 252 51" fill="none" xmlns="http://www.w3.org/2000/svg">
<path d="M211.18 0.0210865V8.09282H193.832V50.5587H185.157V8.09331H167.447V0.0210865H211.18ZM213.13 45.7445C213.741 45.7445 214.276 45.9642 214.728 46.4046C215.187 46.8445 215.416 47.3716 215.422 47.9856C215.42 48.3884 215.309 48.783 215.099 49.1267C214.892 49.4654 214.603 49.7463 214.258 49.9432C213.917 50.1474 213.527 50.2536 213.13 50.2502C212.495 50.2502 211.954 50.03 211.502 49.5901C211.049 49.1498 210.825 48.6167 210.831 47.9856C210.826 47.3716 211.049 46.8446 211.502 46.4046C211.954 45.9642 212.495 45.7445 213.13 45.7445ZM41.1993 50.5587L9.21348 10.8022V50.5381H0.538574V0H11.3815L51.7921 50.1806L51.7926 8.09331L51.7892 0.0210865H95.5217V8.09282H60.467V21.0782H88.6582V29.1504H60.467V42.4869H95.5222V50.5587H41.1993ZM123.324 29.0734L129.009 36.1413L117.359 50.6185H105.975L123.324 29.0734ZM117.359 0.0421731L132.037 18.2698L146.668 0.0980769L158.02 0.0809135L137.72 25.3284L158.053 50.5797H146.668L106.008 0.0421731H117.359ZM227.935 28.9602H231.779V43.7698C231.774 45.1306 231.479 46.2943 230.904 47.2736C230.322 48.2519 229.516 48.9992 228.482 49.5264C227.453 50.0472 226.248 50.314 224.879 50.314C223.627 50.314 222.505 50.0884 221.505 49.648C220.506 49.2076 219.713 48.5476 219.131 47.6786C218.542 46.8102 218.255 45.7269 218.255 44.4298H222.105C222.111 44.9972 222.24 45.4891 222.487 45.901C222.729 46.3077 223.085 46.6354 223.51 46.8445C223.95 47.0652 224.456 47.1753 225.025 47.175C225.643 47.175 226.172 47.0475 226.601 46.7866C227.03 46.5316 227.359 46.1494 227.589 45.6401C227.812 45.136 227.929 44.5107 227.935 43.7693V28.9602ZM247.595 34.7516C247.502 33.8542 247.09 33.1529 246.373 32.6552C245.649 32.1511 244.715 31.9025 243.569 31.9025C242.765 31.9025 242.071 32.0241 241.494 32.2614C240.919 32.5047 240.472 32.8288 240.166 33.2402C239.861 33.6512 239.708 34.1205 239.696 34.6476C239.696 35.0875 239.802 35.47 240.007 35.7883C240.22 36.1222 240.508 36.4019 240.848 36.6053C241.217 36.8372 241.611 37.0256 242.024 37.1667C242.458 37.3171 242.893 37.4446 243.328 37.5492L245.332 38.0416C246.138 38.2269 246.92 38.4756 247.666 38.7943C248.412 39.1072 249.088 39.5069 249.681 39.9874C250.275 40.468 250.746 41.0472 251.092 41.7249C251.439 42.4026 251.615 43.196 251.615 44.1111C251.615 45.3444 251.298 46.4277 250.657 47.3658C250.017 48.2985 249.094 49.0282 247.883 49.5553C246.678 50.0766 245.22 50.3429 243.505 50.3429C241.847 50.3429 240.401 50.0879 239.184 49.5784C237.962 49.0747 237.01 48.3328 236.322 47.3599C235.634 46.387 235.264 45.1997 235.211 43.8041H239.02C239.073 44.5338 239.308 45.1419 239.708 45.6342C240.113 46.1207 240.642 46.4796 241.289 46.7229C241.941 46.9607 242.67 47.0823 243.475 47.0823C244.316 47.0823 245.056 46.9548 245.697 46.7057C246.332 46.4566 246.831 46.1094 247.19 45.6573C247.554 45.211 247.737 44.6843 247.742 44.0821C247.737 43.5319 247.571 43.0744 247.254 42.715C246.931 42.356 246.484 42.0549 245.914 41.8117C245.339 41.5684 244.668 41.3482 243.904 41.1575L241.471 40.5435C239.713 40.0973 238.321 39.4201 237.304 38.5104C236.281 37.6012 235.776 36.3968 235.776 34.885C235.776 33.6458 236.116 32.5566 236.804 31.6239C237.486 30.6922 238.421 29.9679 239.602 29.4525C240.789 28.9312 242.129 28.6762 243.622 28.6762C245.138 28.6762 246.466 28.9312 247.613 29.4525C248.759 29.9679 249.658 30.6858 250.31 31.6009C250.963 32.5164 251.304 33.5644 251.322 34.7516H247.595Z" fill="#034267"/>
</svg>
