<svg width="39" height="231" viewBox="0 0 39 231" fill="none" xmlns="http://www.w3.org/2000/svg">
<path d="M18.7151 3.11742C22.183 3.11742 25.2362 3.66399 27.8748 4.75712C30.5511 5.81255 32.8693 7.37686 34.8294 9.45003L30.1364 15.7261C28.5156 14.0299 26.7628 12.7671 24.8781 11.9378C23.0311 11.0709 20.9202 10.6374 18.5455 10.6374C17.1508 10.6374 16.02 10.7882 15.153 11.0897C14.2861 11.3913 13.6641 11.8059 13.2872 12.3336C12.9102 12.8613 12.7218 13.4645 12.7218 14.1429C12.7218 14.9345 13.0799 15.613 13.796 16.1784C14.5499 16.7061 15.7561 17.1585 17.4147 17.5354L23.6907 18.9489C27.4225 19.8159 30.1553 21.0787 31.8892 22.7372C33.6231 24.3957 34.4901 26.6009 34.4901 29.3525C34.4901 31.9911 33.8116 34.2339 32.4546 36.0809C31.0976 37.8902 29.2318 39.2661 26.8571 40.2084C24.4823 41.1131 21.7683 41.5654 18.7151 41.5654C16.2273 41.5654 13.8526 41.3016 11.5909 40.7738C9.32929 40.2084 7.29381 39.4168 5.48449 38.3991C3.67518 37.3814 2.14856 36.2128 0.904659 34.8936L5.59757 28.3913C6.53993 29.4845 7.6896 30.4645 9.04659 31.3315C10.4413 32.1607 11.949 32.8204 13.5699 33.3104C15.2284 33.8004 16.9058 34.0454 18.602 34.0454C19.9213 34.0454 21.0145 33.9135 21.8814 33.6496C22.7861 33.3858 23.4457 32.99 23.8604 32.4623C24.275 31.9346 24.4823 31.3126 24.4823 30.5964C24.4823 29.8049 24.1996 29.1452 23.6342 28.6175C23.0688 28.0521 21.9945 27.5809 20.4114 27.204L13.5133 25.6773C11.4025 25.1873 9.51776 24.5465 7.85922 23.7549C6.23837 22.9257 4.95677 21.8325 4.01442 20.4756C3.07207 19.0809 2.60089 17.3469 2.60089 15.2738C2.60089 12.9367 3.24169 10.8636 4.52329 9.05425C5.80489 7.20723 7.6519 5.75601 10.0643 4.70058C12.4767 3.64514 15.3603 3.11742 18.7151 3.11742ZM18.2063 84.5654C13.1175 84.5654 9.2539 82.9446 6.61532 79.7029C4.01442 76.4612 2.71398 71.674 2.71398 65.3414C2.71398 59.0088 4.01442 54.2217 6.61532 50.98C9.2539 47.7383 13.1175 46.1174 18.2063 46.1174C23.295 46.1174 27.1398 47.7383 29.7406 50.98C32.3792 54.2217 33.6985 59.0088 33.6985 65.3414C33.6985 71.674 32.3792 76.4612 29.7406 79.7029C27.1398 82.9446 23.295 84.5654 18.2063 84.5654ZM18.2063 76.9889C19.6009 76.9889 20.7318 76.612 21.5987 75.8581C22.4657 75.0665 23.0876 73.8226 23.4646 72.1264C23.8792 70.3924 24.0865 68.1308 24.0865 65.3414C24.0865 62.5521 23.8792 60.3093 23.4646 58.613C23.0876 56.8791 22.4657 55.6352 21.5987 54.8813C20.7318 54.0897 19.6009 53.6939 18.2063 53.6939C16.8493 53.6939 15.7184 54.0897 14.8138 54.8813C13.9468 55.6352 13.306 56.8791 12.8914 58.613C12.5144 60.3093 12.326 62.5521 12.326 65.3414C12.326 68.1308 12.5144 70.3924 12.8914 72.1264C13.306 73.8226 13.9468 75.0665 14.8138 75.8581C15.7184 76.612 16.8493 76.9889 18.2063 76.9889ZM21.938 89.6828C26.3859 89.6828 29.8349 90.7383 32.285 92.8491C34.7728 94.9223 36.0167 97.6928 36.0167 101.161C36.0167 104.968 34.7917 107.87 32.3415 109.868C29.8914 111.866 26.4424 112.865 21.9945 112.865L21.0899 113.374H13.683V127H4.1275V89.6828H21.938ZM20.581 106.476C22.4657 106.476 23.8792 106.099 24.8216 105.345C25.7639 104.591 26.2351 103.385 26.2351 101.726C26.2351 100.105 25.7639 98.9179 24.8216 98.164C23.8792 97.4101 22.4657 97.0332 20.581 97.0332H13.683V106.476H20.581ZM26.2916 108.511L38.2218 127H27.479L17.9235 110.66L26.2916 108.511ZM38.0522 170H28.0444L25.4435 161.575H12.6652L10.0078 170H0.226165L13.3437 132.683H24.9912L38.0522 170ZM14.4745 154.96H23.6342L19.0544 139.864L14.4745 154.96Z" fill="#FAF9F4"/>
<path fill-rule="evenodd" clip-rule="evenodd" d="M30.1977 186.384C30.1381 186.595 29.9378 187.492 29.7525 188.377C29.3617 190.244 28.8886 191.15 27.8 192.117C26.89 192.925 25.8819 193.332 23.7144 193.766C22.8541 193.939 22.1503 194.139 22.1503 194.212C22.1503 194.612 22.9775 195.021 24.3151 195.282C25.1239 195.44 26.1842 195.762 26.6715 195.998C28.3615 196.815 29.5167 198.822 30.1065 201.967C30.2753 202.867 30.3473 203 30.6253 202.927C31.0556 202.813 31.0715 202.778 31.3836 201.236C32.062 197.884 33.4585 196.059 35.73 195.555C38.4261 194.956 38.8716 194.821 38.9677 194.568C39.024 194.42 39.0049 194.233 38.9251 194.153C38.8452 194.072 37.8346 193.773 36.6791 193.487C35.5235 193.201 34.3382 192.817 34.045 192.635C32.6724 191.779 31.8559 190.303 31.4611 187.961C31.2485 186.701 30.9178 186 30.536 186C30.4094 186 30.2572 186.173 30.1977 186.384ZM21.7276 196.927C16.7331 197.46 11.2556 197.785 5.53758 197.888C2.492 197.943 0 198.051 0 198.128C0 198.255 1.17008 200.15 4.8565 205.995C5.55162 207.097 6.13547 207.999 6.1539 207.999C6.17233 207.999 7.09707 207.696 8.20864 207.326C9.32021 206.956 10.1156 206.726 9.9761 206.815C6.56935 208.996 4.88525 209.807 3.41588 209.974C2.97863 210.023 2.36518 210.103 2.05254 210.151L1.48424 210.238L1.60852 214.618C1.677 217.027 1.78048 219.315 1.83865 219.701L1.94449 220.405L7.35526 218.825C10.3312 217.956 12.5765 217.371 12.3448 217.525C11.368 218.174 10.623 219.017 10.1259 220.035C9.68882 220.931 9.58078 221.389 9.50925 222.654C9.25207 227.204 11.0589 229.538 15.615 230.543C16.8865 230.824 18.0217 230.9 21.9861 230.973C26.8793 231.062 28.8778 230.947 31.8013 230.41L33.2514 230.144L33.5429 228.152C33.914 225.616 34.5787 222.565 35.0821 221.087C35.3382 220.336 35.4069 219.936 35.2799 219.936C35.1729 219.936 33.7158 220.103 32.0419 220.307C27.866 220.815 21.0092 220.867 20.1549 220.396C19.4586 220.013 19.3624 219.767 19.611 219.007C20.0415 217.692 21.5786 216.959 25.065 216.407C26.5706 216.168 28.0224 216.105 31.9996 216.104L37.0299 216.103V211.88V207.658L36.5649 207.659C36.3093 207.66 34.5021 207.848 32.5491 208.077C28.37 208.567 22.6468 209.072 22.1708 208.992C21.7332 208.92 24.6369 207.246 26.182 206.68C26.7983 206.455 27.3242 206.248 27.3506 206.222C27.3974 206.175 26.4652 198.223 26.2845 197.127C26.1957 196.589 26.1697 196.574 25.3976 196.596C24.96 196.609 23.3086 196.758 21.7276 196.927Z" fill="#FAF9F4"/>
</svg>
