<svg width="471" height="511" viewBox="0 0 471 511" fill="none" xmlns="http://www.w3.org/2000/svg">
<path d="M295.066 508.031V314.031L470.5 508.031H295.066Z" fill="#FDF4E5"/>
<path d="M67.8197 7.25309C74.4784 8.43126 79.9483 10.4407 84.2295 13.2815C88.5107 16.1223 91.5041 19.6997 93.2099 24.0138C94.9156 28.3279 95.2721 33.2905 94.2793 38.9017C93.2864 44.513 91.2488 49.052 88.1663 52.5188C85.0838 55.9857 81.0445 58.3187 76.0485 59.518C71.0524 60.7173 65.2251 60.7279 58.5664 59.5497L45.4362 57.2265L41.584 78.9981L15.4356 74.3714L28.5411 0.303223L67.8197 7.25309ZM57.5783 40.2781C60.4213 40.7812 62.7717 40.5798 64.6295 39.6739C66.5005 38.6933 67.6676 36.8937 68.131 34.2751C68.5943 31.6565 68.1089 29.6031 66.6747 28.1148C65.2538 26.5517 63.1218 25.5186 60.2788 25.0156L51.4131 23.4469L48.7125 38.7094L57.5783 40.2781Z" fill="#FDF4E5"/>
<path d="M100.693 164.726L111.807 189.88L81.5057 203.269L113.289 275.198L79.0157 290.342L47.2326 218.413L16.7838 231.867L5.66948 206.714L100.693 164.726Z" fill="#FDF4E5"/>
<path d="M226.024 191.927L182.169 189.807L181.547 202.657L217.023 204.372L215.868 228.255L180.393 226.54L178.867 258.104L146.325 256.531L150.781 164.351L227.178 168.044L226.024 191.927Z" fill="#FDF4E5"/>
<path d="M215.83 233.625C223.387 229.891 230.576 228.13 237.396 228.342C244.216 228.553 250.417 230.683 255.999 234.73C261.58 238.777 266.291 244.687 270.132 252.46C273.973 260.233 275.805 267.565 275.629 274.457C275.453 281.35 273.377 287.569 269.402 293.115C265.427 298.661 259.661 303.301 252.104 307.035C244.619 310.733 237.43 312.495 230.538 312.318C223.718 312.107 217.481 309.995 211.827 305.984C206.246 301.936 201.535 296.026 197.694 288.253C193.853 280.481 192.021 273.148 192.197 266.256C192.445 259.328 194.557 253.091 198.532 247.545C202.579 241.964 208.345 237.324 215.83 233.625ZM225.165 252.517C222.718 253.726 221.023 255.37 220.08 257.448C219.173 259.418 218.964 261.894 219.453 264.876C220.013 267.823 221.325 271.383 223.387 275.558C225.415 279.66 227.446 282.865 229.481 285.172C231.553 287.372 233.665 288.746 235.816 289.295C238.004 289.736 240.322 289.352 242.769 288.143C245.216 286.934 246.893 285.344 247.799 283.374C248.743 281.296 248.934 278.783 248.374 275.837C247.777 272.818 246.466 269.258 244.439 265.156C242.376 260.981 240.345 257.777 238.345 255.541C236.345 253.306 234.251 251.968 232.063 251.527C229.912 250.978 227.612 251.308 225.165 252.517Z" fill="#FDF4E5"/>
<path d="M67.1739 378.908L132.175 375.887L133.903 413.062L18.2487 418.437L11.5796 274.956L62.2327 272.602L67.1739 378.908Z" fill="#FDF4E5"/>
<path d="M51.2707 435.107C57.9602 436.743 63.739 439.051 68.607 442.032C73.5626 444.96 77.6779 448.579 80.9529 452.887L67.1505 466.303C64.4091 463.17 61.3797 460.452 58.0624 458.148C54.8155 455.862 51.0796 454.202 46.8546 453.169C45.0238 452.721 43.5106 452.501 42.3151 452.507C41.19 452.53 40.3207 452.728 39.7073 453.1C39.1643 453.49 38.8153 454.002 38.6604 454.636C38.4538 455.481 38.9326 456.269 40.0967 457.002C41.3314 457.751 42.8742 458.614 44.7254 459.589L53.7948 464.157C60.5109 467.515 65.2771 471.218 68.0936 475.264C70.9805 479.328 71.7353 484.177 70.358 489.81C68.9806 495.444 66.4712 499.755 62.8297 502.746C59.2055 505.665 54.8192 507.429 49.6709 508.036C44.593 508.66 39.0966 508.249 33.1816 506.802C28.7454 505.718 24.4039 504.246 20.1571 502.387C15.9275 500.457 12.1008 498.253 8.67709 495.774C5.2706 493.225 2.46971 490.488 0.274414 487.563L13.943 473.778C15.5891 475.897 17.6921 477.978 20.2521 480.022C22.8292 481.996 25.5723 483.748 28.4812 485.28C31.3901 486.813 34.1825 487.906 36.8583 488.56C38.5483 488.973 39.9206 489.159 40.9753 489.119C42.03 489.078 42.7851 488.89 43.2404 488.553C43.7835 488.164 44.1324 487.652 44.2874 487.018C44.5284 486.032 44.2867 485.19 43.5622 484.49C42.9082 483.808 41.5851 482.962 39.5932 481.953L29.5989 477.046C26.0735 475.289 22.7929 473.293 19.7573 471.058C16.7216 468.823 14.4747 466.11 13.0164 462.918C11.5754 459.655 11.423 455.7 12.5593 451.052C13.7301 446.264 16.0219 442.384 19.435 439.413C22.9184 436.459 27.3305 434.59 32.6713 433.806C38.0997 432.969 44.2995 433.403 51.2707 435.107Z" fill="#FDF4E5"/>
<path d="M107.744 439.244C114.685 436.12 121.229 434.764 127.377 435.177C133.525 435.59 139.051 437.713 143.957 441.547C148.862 445.38 152.921 450.867 156.135 458.006C159.348 465.145 160.763 471.822 160.38 478.036C159.997 484.249 157.922 489.794 154.154 494.67C150.387 499.545 145.032 503.545 138.092 506.669C131.217 509.763 124.672 511.119 118.459 510.736C112.311 510.323 106.751 508.215 101.78 504.411C96.8743 500.577 92.815 495.091 89.6018 487.952C86.3885 480.813 84.9734 474.136 85.3563 467.922C85.8054 461.678 87.9137 456.119 91.6813 451.243C95.5151 446.338 100.869 442.338 107.744 439.244ZM115.554 456.596C113.307 457.608 111.723 459.036 110.805 460.88C109.922 462.629 109.653 464.856 109.997 467.563C110.407 470.241 111.475 473.496 113.201 477.33C114.897 481.098 116.625 484.056 118.387 486.204C120.185 488.257 122.046 489.566 123.97 490.131C125.93 490.6 128.034 490.329 130.282 489.317C132.529 488.305 134.094 486.925 134.976 485.177C135.895 483.332 136.149 481.072 135.739 478.394C135.3 475.651 134.232 472.395 132.536 468.628C130.81 464.794 129.081 461.835 127.349 459.753C125.617 457.671 123.771 456.395 121.811 455.926C119.887 455.361 117.802 455.584 115.554 456.596Z" fill="#FDF4E5"/>
<path d="M267.663 491.801L253.49 498.18L248.326 491.481L237.726 496.252L239.257 504.586L225.441 510.805L220.495 465.765L237.169 458.26L267.663 491.801ZM235.923 486.679L242.415 483.757L233.061 471.567L235.923 486.679Z" fill="#FDF4E5"/>
<path d="M195.32 459.04C200.704 460.27 204.56 462.424 206.886 465.502C209.223 468.539 209.938 472.04 209.033 476.005C207.994 480.554 205.793 483.652 202.431 485.3C199.11 486.956 194.758 487.17 189.374 485.94L187.762 486.363L180.876 484.79L177.744 498.5L163.47 495.24L172.907 453.921L195.32 459.04ZM188.698 476.498C190.242 476.851 191.452 476.842 192.327 476.471C193.253 476.067 193.879 475.156 194.203 473.737C194.517 472.36 194.345 471.289 193.685 470.523C193.067 469.767 191.986 469.213 190.442 468.86L184.808 467.573L183.063 475.211L188.698 476.498ZM196.637 481.539L204.915 504.706L189.076 501.088L183.567 480.793L196.637 481.539Z" fill="#FDF4E5"/>
<path d="M161.067 275.109L130.48 367.33L97.9235 356.531L128.511 264.311L161.067 275.109Z" fill="#FDF4E5"/>
<path d="M109.773 200.323C113.879 198.585 117.729 197.877 121.324 198.2C124.919 198.523 128.128 199.839 130.95 202.149C133.772 204.458 136.077 207.725 137.865 211.948C139.653 216.171 140.394 220.1 140.088 223.734C139.782 227.368 138.493 230.588 136.223 233.393C133.952 236.199 130.764 238.471 126.658 240.209C122.591 241.931 118.741 242.639 115.107 242.332C111.512 242.01 108.284 240.702 105.422 238.409C102.6 236.099 100.295 232.833 98.5072 228.609C96.7194 224.386 95.9786 220.457 96.2846 216.823C96.6298 213.173 97.9377 209.945 100.208 207.139C102.518 204.317 105.706 202.045 109.773 200.323ZM114.118 210.588C112.789 211.151 111.843 211.966 111.281 213.034C110.741 214.047 110.554 215.348 110.72 216.938C110.925 218.511 111.507 220.432 112.467 222.7C113.411 224.929 114.384 226.684 115.388 227.965C116.414 229.191 117.487 229.982 118.606 230.338C119.747 230.638 120.983 230.507 122.313 229.944C123.642 229.382 124.577 228.594 125.117 227.582C125.679 226.514 125.858 225.193 125.653 223.62C125.431 222.007 124.849 220.087 123.905 217.858C122.945 215.59 121.971 213.835 120.985 212.592C119.998 211.35 118.933 210.579 117.792 210.278C116.672 209.922 115.448 210.025 114.118 210.588Z" fill="#FDF4E5"/>
<path d="M237.078 321.771C250.045 325.796 260.393 331.716 268.121 339.532C275.85 347.347 280.727 356.714 282.753 367.633C284.78 378.552 283.722 390.68 279.582 404.018C275.441 417.355 269.444 427.95 261.591 435.802C253.737 443.654 244.413 448.613 233.617 450.677C222.822 452.742 210.94 451.761 197.973 447.736C185.13 443.749 174.782 437.828 166.93 429.975C159.201 422.16 154.262 412.773 152.112 401.816C150.086 390.897 151.143 378.768 155.284 365.431C159.424 352.093 165.421 341.499 173.275 333.646C181.252 325.833 190.638 320.894 201.434 318.829C212.353 316.803 224.234 317.783 237.078 321.771ZM227.014 354.188C222.815 352.885 219.012 352.923 215.605 354.302C212.36 355.596 209.368 358.256 206.63 362.28C204.015 366.342 201.595 371.955 199.372 379.117C197.186 386.157 196.002 392.153 195.818 397.105C195.797 401.973 196.738 405.921 198.641 408.949C200.706 411.892 203.838 414.015 208.037 415.318C212.236 416.622 215.958 416.626 219.203 415.332C222.61 413.953 225.621 411.232 228.236 407.169C230.889 402.983 233.309 397.371 235.494 390.331C237.718 383.169 238.902 377.173 239.047 372.343C239.192 367.514 238.233 363.628 236.167 360.685C234.264 357.657 231.213 355.492 227.014 354.188Z" fill="#FDF4E5"/>
<path d="M39.8526 89.6373C47.5585 87.5725 54.5568 87.2705 60.8476 88.7312C67.1385 90.192 72.4989 93.3178 76.929 98.1088C81.3591 102.9 84.636 109.258 86.7598 117.184C88.8836 125.111 89.225 132.256 87.7839 138.62C86.3428 144.984 83.2635 150.371 78.5459 154.782C73.8282 159.192 67.6165 162.43 59.9106 164.495C52.278 166.54 45.2797 166.842 38.9155 165.401C32.6247 163.94 27.2275 160.824 22.724 156.053C18.2939 151.262 15.017 144.903 12.8932 136.977C10.7694 129.051 10.4281 121.906 11.8691 115.542C13.3836 109.158 16.4996 103.761 21.2173 99.3501C26.0083 94.92 32.2201 91.6824 39.8526 89.6373ZM45.0146 108.902C42.5193 109.571 40.6414 110.782 39.3808 112.535C38.1739 114.196 37.5208 116.455 37.4214 119.314C37.3955 122.152 37.9527 125.7 39.0933 129.957C40.2142 134.14 41.5054 137.491 42.9669 140.01C44.4821 142.435 46.1873 144.102 48.0824 145.01C50.0313 145.825 52.2533 145.899 54.7486 145.23C57.2438 144.561 59.0949 143.397 60.3018 141.736C61.5624 139.983 62.2057 137.686 62.2316 134.848C62.2379 131.936 61.6806 128.388 60.5598 124.205C59.4192 119.948 58.128 116.597 56.6862 114.152C55.2444 111.706 53.549 110.076 51.6001 109.261C49.705 108.353 47.5098 108.233 45.0146 108.902Z" fill="#FDF4E5"/>
<path d="M138.813 87.98C147.137 88.9025 153.318 91.4817 157.355 95.7176C161.4 99.889 163.082 105.04 162.403 111.17C161.623 118.203 158.843 123.251 154.062 126.313C149.346 129.383 142.826 130.457 134.502 129.534L132.147 130.449L121.5 129.269L119.151 150.466L97.0834 148.02L104.163 84.1399L138.813 87.98ZM131.852 115.426C134.24 115.691 136.061 115.468 137.315 114.758C138.641 113.99 139.426 112.51 139.669 110.316C139.905 108.186 139.46 106.602 138.334 105.563C137.273 104.531 135.548 103.882 133.161 103.618L124.45 102.652L123.141 114.461L131.852 115.426ZM144.684 121.649L161.157 155.121L136.67 152.407L124.864 122.784L144.684 121.649Z" fill="#FDF4E5"/>
</svg>
