<svg width="43" height="14" viewBox="0 0 43 14" fill="none" xmlns="http://www.w3.org/2000/svg">
<path d="M4.0819 1.69397H5.4125V3.02457H4.0819V1.69397ZM4.0819 3.02457H5.4125V4.35517H4.0819V3.02457ZM5.4125 1.69397H6.74311V3.02457H5.4125V1.69397ZM6.74311 1.69397H8.07371V3.02457H6.74311V1.69397ZM6.74311 3.02457H8.07371V4.35517H6.74311V3.02457ZM5.4125 3.02457H6.74311V4.35517H5.4125V3.02457ZM5.4125 4.35517H6.74311V5.68578H5.4125V4.35517ZM4.0819 4.35517H5.4125V5.68578H4.0819V4.35517ZM6.74311 4.35517H8.07371V5.68578H6.74311V4.35517ZM8.07371 5.68578H9.40431V7.01638H8.07371V5.68578ZM8.07371 7.01638H9.40431V8.34698H8.07371V7.01638ZM8.07371 8.34698H9.40431V9.67759H8.07371V8.34698ZM9.40431 8.34698H10.7349V9.67759H9.40431V8.34698ZM9.40431 7.01638H10.7349V8.34698H9.40431V7.01638ZM10.7349 7.01638H12.0655V8.34698H10.7349V7.01638ZM9.40431 5.68578H10.7349V7.01638H9.40431V5.68578ZM10.7349 8.34698H12.0655V9.67759H10.7349V8.34698ZM10.7349 5.68578H12.0655V7.01638H10.7349V5.68578ZM2.7513 5.68578H4.0819V7.01638H2.7513V5.68578ZM2.7513 7.01638H4.0819V8.34698H2.7513V7.01638ZM2.7513 8.34698H4.0819V9.67759H2.7513V8.34698ZM1.42069 8.34698H2.7513V9.67759H1.42069V8.34698ZM0.0900905 8.34698H1.42069V9.67759H0.0900905V8.34698ZM0.0900905 7.01638H1.42069V8.34698H0.0900905V7.01638ZM0.0900905 5.68578H1.42069V7.01638H0.0900905V5.68578ZM1.42069 5.68578H2.7513V7.01638H1.42069V5.68578ZM1.42069 7.01638H2.7513V8.34698H1.42069V7.01638ZM4.0819 9.67759H5.4125V11.0082H4.0819V9.67759ZM5.4125 9.67759H6.74311V11.0082H5.4125V9.67759ZM6.74311 9.67759H8.07371V11.0082H6.74311V9.67759ZM6.74311 11.0082H8.07371V12.3388H6.74311V11.0082ZM6.74311 12.3388H8.07371V13.6694H6.74311V12.3388ZM5.4125 12.3388H6.74311V13.6694H5.4125V12.3388ZM4.0819 12.3388H5.4125V13.6694H4.0819V12.3388ZM4.0819 11.0082H5.4125V12.3388H4.0819V11.0082ZM5.4125 11.0082H6.74311V12.3388H5.4125V11.0082ZM18.7185 1.69397H20.0491V3.02457H18.7185V1.69397ZM18.7185 3.02457H20.0491V4.35517H18.7185V3.02457ZM20.0491 1.69397H21.3797V3.02457H20.0491V1.69397ZM21.3797 1.69397H22.7103V3.02457H21.3797V1.69397ZM21.3797 3.02457H22.7103V4.35517H21.3797V3.02457ZM20.0491 3.02457H21.3797V4.35517H20.0491V3.02457ZM20.0491 4.35517H21.3797V5.68578H20.0491V4.35517ZM18.7185 4.35517H20.0491V5.68578H18.7185V4.35517ZM21.3797 4.35517H22.7103V5.68578H21.3797V4.35517ZM22.7103 5.68578H24.041V7.01638H22.7103V5.68578ZM22.7103 7.01638H24.041V8.34698H22.7103V7.01638ZM22.7103 8.34698H24.041V9.67759H22.7103V8.34698ZM24.041 8.34698H25.3716V9.67759H24.041V8.34698ZM24.041 7.01638H25.3716V8.34698H24.041V7.01638ZM25.3716 7.01638H26.7022V8.34698H25.3716V7.01638ZM24.041 5.68578H25.3716V7.01638H24.041V5.68578ZM25.3716 8.34698H26.7022V9.67759H25.3716V8.34698ZM25.3716 5.68578H26.7022V7.01638H25.3716V5.68578ZM17.3879 5.68578H18.7185V7.01638H17.3879V5.68578ZM17.3879 7.01638H18.7185V8.34698H17.3879V7.01638ZM17.3879 8.34698H18.7185V9.67759H17.3879V8.34698ZM16.0573 8.34698H17.3879V9.67759H16.0573V8.34698ZM14.7267 8.34698H16.0573V9.67759H14.7267V8.34698ZM14.7267 7.01638H16.0573V8.34698H14.7267V7.01638ZM14.7267 5.68578H16.0573V7.01638H14.7267V5.68578ZM16.0573 5.68578H17.3879V7.01638H16.0573V5.68578ZM16.0573 7.01638H17.3879V8.34698H16.0573V7.01638ZM18.7185 9.67759H20.0491V11.0082H18.7185V9.67759ZM20.0491 9.67759H21.3797V11.0082H20.0491V9.67759ZM21.3797 9.67759H22.7103V11.0082H21.3797V9.67759ZM21.3797 11.0082H22.7103V12.3388H21.3797V11.0082ZM21.3797 12.3388H22.7103V13.6694H21.3797V12.3388ZM20.0491 12.3388H21.3797V13.6694H20.0491V12.3388ZM18.7185 12.3388H20.0491V13.6694H18.7185V12.3388ZM18.7185 11.0082H20.0491V12.3388H18.7185V11.0082ZM20.0491 11.0082H21.3797V12.3388H20.0491V11.0082ZM18.7185 5.68578H20.0491V7.01638H18.7185V5.68578ZM20.0491 5.68578H21.3797V7.01638H20.0491V5.68578ZM21.3797 5.68578H22.7103V7.01638H21.3797V5.68578ZM21.3797 7.01638H22.7103V8.34698H21.3797V7.01638ZM20.0491 7.01638H21.3797V8.34698H20.0491V7.01638ZM18.7185 7.01638H20.0491V8.34698H18.7185V7.01638ZM18.7185 8.34698H20.0491V9.67759H18.7185V8.34698ZM20.0491 8.34698H21.3797V9.67759H20.0491V8.34698ZM21.3797 8.34698H22.7103V9.67759H21.3797V8.34698ZM34.6858 7.01638H36.0164V8.34698H34.6858V7.01638ZM36.0164 7.01638H37.347V8.34698H36.0164V7.01638ZM36.0164 5.68578H37.347V7.01638H36.0164V5.68578ZM34.6858 5.68578H36.0164V7.01638H34.6858V5.68578ZM33.3552 4.35517H34.6858V5.68578H33.3552V4.35517ZM33.3552 3.02457H34.6858V4.35517H33.3552V3.02457ZM33.3552 1.69397H34.6858V3.02457H33.3552V1.69397ZM33.3552 0.363363H34.6858V1.69397H33.3552V0.363363ZM32.0246 0.363363H33.3552V1.69397H32.0246V0.363363ZM32.0246 1.69397H33.3552V3.02457H32.0246V1.69397ZM30.694 3.02457H32.0246V4.35517H30.694V3.02457ZM32.0246 3.02457H33.3552V4.35517H32.0246V3.02457ZM32.0246 4.35517H33.3552V5.68578H32.0246V4.35517ZM30.694 4.35517H32.0246V5.68578H30.694V4.35517ZM29.3634 3.02457H30.694V4.35517H29.3634V3.02457ZM29.3634 4.35517H30.694V5.68578H29.3634V4.35517ZM33.3552 8.34698H34.6858V9.67759H33.3552V8.34698ZM32.0246 8.34698H33.3552V9.67759H32.0246V8.34698ZM32.0246 9.67759H33.3552V11.0082H32.0246V9.67759ZM32.0246 11.0082H33.3552V12.3388H32.0246V11.0082ZM32.0246 12.3388H33.3552V13.6694H32.0246V12.3388ZM33.3552 12.3388H34.6858V13.6694H33.3552V12.3388ZM33.3552 11.0082H34.6858V12.3388H33.3552V11.0082ZM33.3552 9.67759H34.6858V11.0082H33.3552V9.67759ZM30.694 8.34698H32.0246V9.67759H30.694V8.34698ZM29.3634 8.34698H30.694V9.67759H29.3634V8.34698ZM29.3634 9.67759H30.694V11.0082H29.3634V9.67759ZM30.694 9.67759H32.0246V11.0082H30.694V9.67759ZM37.347 8.34698H38.6776V9.67759H37.347V8.34698ZM37.347 9.67759H38.6776V11.0082H37.347V9.67759ZM37.347 11.0082H38.6776V12.3388H37.347V11.0082ZM37.347 12.3388H38.6776V13.6694H37.347V12.3388ZM38.6776 12.3388H40.0082V13.6694H38.6776V12.3388ZM38.6776 11.0082H40.0082V12.3388H38.6776V11.0082ZM38.6776 9.67759H40.0082V11.0082H38.6776V9.67759ZM38.6776 8.34698H40.0082V9.67759H38.6776V8.34698ZM41.3388 8.34698H42.6694V9.67759H41.3388V8.34698ZM41.3388 9.67759H42.6694V11.0082H41.3388V9.67759ZM40.0082 9.67759H41.3388V11.0082H40.0082V9.67759ZM40.0082 8.34698H41.3388V9.67759H40.0082V8.34698ZM37.347 3.02457H38.6776V4.35517H37.347V3.02457ZM37.347 1.69397H38.6776V3.02457H37.347V1.69397ZM37.347 0.363363H38.6776V1.69397H37.347V0.363363ZM38.6776 0.363363H40.0082V1.69397H38.6776V0.363363ZM38.6776 1.69397H40.0082V3.02457H38.6776V1.69397ZM38.6776 3.02457H40.0082V4.35517H38.6776V3.02457ZM38.6776 4.35517H40.0082V5.68578H38.6776V4.35517ZM37.347 4.35517H38.6776V5.68578H37.347V4.35517ZM40.0082 3.02457H41.3388V4.35517H40.0082V3.02457ZM41.3388 3.02457H42.6694V4.35517H41.3388V3.02457ZM41.3388 4.35517H42.6694V5.68578H41.3388V4.35517ZM40.0082 4.35517H41.3388V5.68578H40.0082V4.35517Z" fill="#034267"/>
</svg>
