<svg width="48" height="49" viewBox="0 0 48 49" fill="none" xmlns="http://www.w3.org/2000/svg">
<path d="M24.4616 12.731C19.2243 12.731 15.9681 15.3398 14.6539 20.5771C16.6154 17.9683 18.9104 16.9875 21.5193 17.6348C23.01 18.0075 24.0889 19.0863 25.2658 20.2829C27.1881 22.2444 29.3654 24.5002 34.2693 24.5002C39.5066 24.5002 42.7627 21.8913 44.077 16.654C42.1154 19.2629 39.8204 20.2436 37.2116 19.5963C35.7208 19.2236 34.6616 18.1448 33.465 16.9483C31.5427 14.9867 29.3654 12.731 24.4616 12.731ZM14.6539 24.5002C9.41658 24.5002 6.16042 27.109 4.84619 32.3463C6.80773 29.7375 9.10273 28.7567 11.7116 29.404C13.2023 29.7767 14.2616 30.8556 15.4581 32.0521C17.3804 34.0136 19.5577 36.2694 24.4616 36.2694C29.6989 36.2694 32.955 33.6606 34.2693 28.4233C32.3077 31.0321 30.0127 32.0129 27.4039 31.3656C25.9131 30.9929 24.8539 29.914 23.6573 28.7175C21.735 26.756 19.5577 24.5002 14.6539 24.5002Z" fill="#034267"/>
</svg>
